<svg viewBox="0 0 200 200" className="w-full h-full" fill="none" xmlns="http://www.w3.org/2000/svg">
  <path
    d="M100 180 C30 130, 20 90, 20 70 C20 40, 40 20, 60 20 C75 20, 85 30, 100 50 C115 30, 125 20, 140 20 C160 20, 180 40, 180 70 C180 90, 170 130, 100 180Z"
    fill="none"
    stroke="#0078A8"
    strokeWidth="8"
  />
  <path d="M100 180 C140 145, 160 100, 180 70 C180 90, 170 130, 100 180Z" fill="#F58220" />
  <text x="100" y="90" textAnchor="middle" fontSize="24" fill="#F58220" fontWeight="bold">
    +
  </text>
  <path d="M110 70 L130 50 M130 50 L125 65" stroke="#F58220" strokeWidth="3" fill="none" />
</svg>
